<svg xmlns="http://www.w3.org/2000/svg" width="1200" height="420" viewBox="0 0 1200 420">
  <defs>
    <linearGradient id="sky" x1="0" y1="0" x2="0" y2="1">
      <stop offset="0" stop-color="#f59e0b"/><stop offset="0.5" stop-color="#fb7185"/><stop offset="1" stop-color="#a855f7"/>
    </linearGradient>
  </defs>
  <rect width="1200" height="420" fill="url(#sky)"/>
  <circle cx="960" cy="90" r="48" fill="#fde68a" opacity="0.9"/>
  <path d="M0 300 L210 150 L400 300 Z" fill="#78350f"/>
  <path d="M280 300 L500 120 L720 300 Z" fill="#92400e"/>
  <path d="M540 300 L780 100 L1020 300 Z" fill="#78350f"/>
  <path d="M840 300 L1040 165 L1200 300 Z" fill="#92400e"/>
  <!-- gold chinar canopy -->
  <g fill="#fbbf24">
    <circle cx="130" cy="345" r="38"/><circle cx="175" cy="328" r="30"/><circle cx="95" cy="330" r="26"/>
    <circle cx="1070" cy="350" r="34"/><circle cx="1110" cy="335" r="26"/>
  </g>
  <rect x="126" y="345" width="9" height="55" fill="#4d260f"/>
  <rect x="1066" y="350" width="9" height="50" fill="#4d260f"/>
  <rect y="392" width="1200" height="28" fill="#d97706" opacity="0.6"/>
  <text x="40" y="60" font-family="sans-serif" font-size="34" font-weight="800" fill="#fff">Autumn · Gold</text>
</svg>
