<svg xmlns="http://www.w3.org/2000/svg" width="1200" height="420" viewBox="0 0 1200 420">
  <defs>
    <linearGradient id="sky" x1="0" y1="0" x2="0" y2="1">
      <stop offset="0" stop-color="#1e3a8a"/><stop offset="0.5" stop-color="#7dd3fc"/><stop offset="1" stop-color="#e0f2fe"/>
    </linearGradient>
  </defs>
  <rect width="1200" height="420" fill="url(#sky)"/>
  <circle cx="980" cy="85" r="44" fill="#e0f2fe" opacity="0.9"/>
  <path d="M0 300 L200 160 L380 300 Z" fill="#e2e8f0"/>
  <path d="M280 300 L500 110 L720 300 Z" fill="#f1f5f9"/>
  <path d="M540 300 L780 80 L1020 300 Z" fill="#e2e8f0"/>
  <path d="M840 300 L1040 170 L1200 300 Z" fill="#f1f5f9"/>
  <!-- snow caps -->
  <path d="M500 110 L548 165 L452 165 Z" fill="#fff"/><path d="M780 80 L828 135 L732 135 Z" fill="#fff"/>
  <!-- snow ground -->
  <rect y="360" width="1200" height="60" fill="#ffffff" opacity="0.92"/>
  <path d="M0 360 Q300 340 600 360 T1200 360 L1200 420 L0 420 Z" fill="#fff"/>
  <!-- falling snow -->
  <g fill="#fff"><circle cx="200" cy="200" r="4"/><circle cx="400" cy="150" r="3"/><circle cx="600" cy="220" r="4"/><circle cx="800" cy="170" r="3"/><circle cx="1000" cy="230" r="4"/><circle cx="320" cy="260" r="3"/><circle cx="720" cy="250" r="4"/></g>
  <text x="40" y="60" font-family="sans-serif" font-size="34" font-weight="800" fill="#0f172a">Winter · Snow</text>
</svg>
