<svg xmlns="http://www.w3.org/2000/svg" width="1200" height="420" viewBox="0 0 1200 420">
  <defs>
    <linearGradient id="sky" x1="0" y1="0" x2="0" y2="1">
      <stop offset="0" stop-color="#fbcfe8"/><stop offset="0.5" stop-color="#a7f3d0"/><stop offset="1" stop-color="#67e8f9"/>
    </linearGradient>
    <linearGradient id="mtn" x1="0" y1="0" x2="0" y2="1">
      <stop offset="0" stop-color="#94a3b8"/><stop offset="1" stop-color="#cbd5e1"/>
    </linearGradient>
  </defs>
  <rect width="1200" height="420" fill="url(#sky)"/>
  <circle cx="980" cy="90" r="46" fill="#fde68a" opacity="0.9"/>
  <path d="M0 300 L220 150 L360 300 Z" fill="url(#mtn)"/>
  <path d="M260 300 L480 120 L700 300 Z" fill="#aab4c2"/>
  <path d="M520 300 L760 90 L1000 300 Z" fill="url(#mtn)"/>
  <path d="M820 300 L1020 160 L1200 300 Z" fill="#aab4c2"/>
  <!-- snow caps -->
  <path d="M480 120 L520 160 L460 160 Z" fill="#fff"/><path d="M760 90 L800 135 L720 135 Z" fill="#fff"/>
  <!-- blossom trees foreground -->
  <g fill="#f9a8d4">
    <circle cx="120" cy="350" r="34"/><circle cx="160" cy="335" r="28"/><circle cx="90" cy="338" r="24"/>
    <circle cx="1080" cy="355" r="30"/><circle cx="1120" cy="340" r="24"/>
  </g>
  <rect x="116" y="350" width="8" height="50" fill="#7c4a2d"/>
  <rect x="1076" y="355" width="8" height="45" fill="#7c4a2d"/>
  <rect y="390" width="1200" height="30" fill="#34d399" opacity="0.6"/>
  <text x="40" y="60" font-family="sans-serif" font-size="34" font-weight="800" fill="#1e293b">Spring · Blossom</text>
</svg>
